<?xml version="1.0" standalone="no"?>
<!DOCTYPE svg PUBLIC "-//W3C//DTD SVG 20010904//EN"
 "http://www.w3.org/TR/2001/REC-SVG-20010904/DTD/svg10.dtd">
<svg version="1.0" xmlns="http://www.w3.org/2000/svg"
 width="2048.000000pt" height="2048.000000pt" viewBox="0 0 2048.000000 2048.000000"
 preserveAspectRatio="xMidYMid meet">
<metadata>
Created by potrace 1.14, written by Peter Selinger 2001-2017
</metadata>
<g transform="translate(0.000000,2048.000000) scale(0.100000,-0.100000)"
fill="#000000" stroke="none">
<path d="M9350 16570 c-69 -4 -159 -13 -200 -20 -41 -6 -115 -15 -165 -20
-269 -28 -659 -98 -830 -151 -33 -10 -85 -22 -115 -28 -30 -6 -86 -17 -125
-25 -72 -16 -236 -40 -338 -50 -32 -4 -90 -15 -130 -25 -40 -11 -144 -36 -232
-56 -221 -51 -582 -173 -703 -237 -248 -132 -362 -247 -362 -367 0 -25 -6 -60
-12 -79 -11 -29 -10 -35 5 -47 9 -7 23 -32 31 -56 8 -24 20 -57 26 -74 11 -27
9 -35 -21 -85 -44 -75 -46 -142 -5 -228 29 -61 29 -62 10 -83 -16 -18 -19 -37
-19 -128 0 -129 8 -171 41 -211 l26 -30 -21 -43 c-37 -77 -22 -150 49 -231
l30 -34 -20 -43 c-30 -66 -26 -127 9 -176 16 -23 45 -53 63 -67 l34 -25 2
-4003 c2 -4003 5 -4727 23 -4868 5 -41 11 -111 13 -155 5 -96 28 -161 89 -244
155 -210 466 -423 937 -641 236 -109 447 -182 724 -251 245 -61 303 -71 621
-109 763 -92 844 -98 1465 -106 527 -7 684 -1 1085 35 289 27 536 64 825 122
313 63 431 100 659 209 102 48 227 104 276 124 122 50 367 175 451 229 83 53
148 104 388 304 192 159 219 186 264 261 l27 47 2 1290 c1 710 6 2390 12 3735
6 1345 8 2694 4 2997 l-6 553 46 40 c69 61 81 139 33 212 -17 26 -17 26 30 64
26 22 53 54 61 72 17 42 8 127 -18 164 l-19 27 54 54 c63 63 75 104 52 181
-15 50 -59 106 -83 106 -18 0 -17 3 23 65 62 99 77 164 49 219 -17 32 -13 58
7 54 7 -2 24 28 40 72 26 69 28 83 23 175 -6 130 -32 220 -102 359 -51 102
-195 224 -408 349 -33 19 -98 58 -145 86 -47 28 -93 51 -102 51 -9 0 -52 19
-95 42 -353 188 -884 379 -1271 458 -53 11 -135 29 -182 40 -160 37 -325 69
-415 80 -333 41 -522 60 -595 60 -41 0 -93 5 -115 10 -74 17 -286 32 -580 41
-453 13 -1038 18 -1175 9z m1020 -89 c347 -16 549 -31 665 -47 55 -8 170 -19
255 -24 85 -6 198 -15 250 -20 52 -6 138 -15 190 -20 116 -10 116 -10 520 -95
63 -14 142 -29 175 -36 196 -36 583 -156 790 -244 61 -26 133 -55 160 -65 88
-33 188 -76 270 -118 103 -52 179 -82 211 -82 25 0 151 -83 293 -195 111 -87
203 -191 246 -275 l36 -72 -7 -136 c-5 -92 -14 -158 -28 -205 l-21 -70 -80
-48 c-43 -26 -82 -56 -86 -66 -8 -21 6 -63 21 -63 5 0 10 -4 10 -10 0 -21
-101 -66 -219 -98 -133 -36 -493 -114 -498 -108 -5 4 156 62 227 82 83 24 327
147 403 205 67 50 91 89 69 111 -8 8 -32 -3 -84 -36 -108 -70 -330 -175 -433
-206 -49 -15 -128 -39 -175 -54 -137 -43 -559 -115 -1005 -172 -66 -8 -129
-17 -140 -20 -11 -2 -72 -12 -135 -21 -94 -14 -206 -17 -620 -19 -822 -4 -909
-5 -870 -15 57 -15 772 -32 1080 -25 157 3 355 12 440 21 85 8 207 19 270 25
63 5 178 16 255 25 77 8 151 15 165 14 24 -1 23 -1 -5 -10 -45 -14 -252 -46
-410 -64 -77 -9 -234 -29 -350 -45 -565 -77 -502 -73 -968 -65 -588 10 -1038
10 -1066 1 -12 -4 -19 -12 -15 -16 9 -9 168 -27 466 -55 363 -33 944 -8 1553
66 88 10 228 26 310 34 149 16 348 42 520 69 50 8 146 22 215 31 224 30 702
142 900 212 61 22 136 71 187 123 24 24 45 42 47 39 3 -2 -17 -35 -45 -72 -78
-107 -223 -187 -539 -298 -74 -26 -155 -55 -180 -64 -25 -9 -84 -21 -133 -26
-48 -5 -142 -22 -210 -39 -206 -50 -264 -60 -446 -76 -411 -36 -788 -84 -1141
-144 -30 -6 -152 -17 -270 -25 -118 -9 -223 -18 -232 -21 -9 -3 -108 -9 -218
-13 -111 -5 -206 -13 -211 -18 -7 -7 8 -18 43 -34 49 -21 67 -23 218 -24 275
0 633 30 950 80 278 45 694 101 890 121 154 15 288 40 366 68 22 7 115 28 205
46 90 17 198 41 239 52 41 12 118 29 170 40 52 10 118 26 145 34 129 41 251
88 295 114 l47 28 27 -22 c19 -14 29 -34 33 -61 7 -57 -22 -89 -121 -136 -111
-51 -475 -174 -621 -209 -119 -29 -403 -79 -565 -100 -46 -7 -87 -13 -91 -16
-14 -8 -585 -74 -814 -94 -66 -5 -221 -19 -345 -30 -149 -13 -304 -20 -460
-20 -129 0 -293 -3 -365 -7 -117 -7 -124 -8 -70 -14 120 -13 738 -10 877 5 73
8 180 17 238 21 103 6 335 30 575 60 66 8 165 20 220 26 55 6 118 14 140 19
22 5 126 18 230 29 358 40 486 61 725 122 129 33 266 71 305 84 65 22 71 23
83 7 8 -10 11 -31 8 -52 -11 -73 -140 -147 -431 -247 -192 -65 -288 -89 -790
-193 -136 -29 -434 -63 -645 -74 -58 -4 -186 -15 -285 -26 -99 -11 -243 -24
-320 -30 -77 -6 -171 -15 -210 -20 -38 -5 -187 -12 -330 -17 l-260 -8 180 -8
c185 -8 359 -3 500 13 44 5 154 11 245 14 l165 4 -165 -29 c-164 -28 -293 -39
-695 -59 -487 -24 -739 -33 -1062 -39 -188 -3 -345 -9 -349 -14 -4 -4 -3 -11
2 -16 13 -13 387 -36 569 -36 146 0 202 3 760 45 149 10 340 24 425 30 85 6
218 21 295 34 278 48 491 87 525 96 41 10 193 27 335 35 146 9 335 33 439 55
50 11 138 27 196 36 226 34 524 104 708 166 67 23 125 38 128 35 3 -3 6 -22 7
-41 1 -43 -14 -56 -123 -104 -118 -52 -204 -80 -277 -93 -37 -6 -203 -44 -368
-84 -165 -40 -322 -76 -350 -80 -61 -9 -328 -52 -610 -99 -300 -50 -610 -85
-980 -111 -115 -8 -230 -18 -255 -21 -42 -6 -43 -7 -20 -16 35 -14 395 -2 660
23 278 25 424 42 700 84 124 19 290 41 370 50 80 8 192 22 250 30 58 8 122 15
142 15 21 0 102 14 180 30 196 42 246 50 373 61 61 5 137 12 169 15 l59 6 -6
-458 c-4 -253 -9 -1888 -12 -3634 -5 -2922 -10 -4119 -20 -4128 -2 -2 -17 5
-34 17 -93 67 -534 254 -741 316 -25 7 -101 34 -170 60 -238 89 -613 195
-1030 290 -85 20 -175 42 -200 50 -70 22 -273 66 -400 86 -63 10 -167 27 -230
39 -602 108 -734 121 -1170 116 -520 -7 -983 -39 -1400 -97 -80 -11 -206 -33
-280 -49 -74 -16 -196 -41 -270 -55 -74 -14 -171 -33 -215 -41 -135 -26 -473
-112 -606 -155 -177 -56 -361 -149 -542 -272 -85 -58 -168 -112 -185 -121 -17
-9 -57 -40 -90 -70 l-59 -55 -6 2322 c-4 1277 -9 2714 -12 3192 -3 479 -7
1380 -10 2003 l-6 1133 63 -32 c34 -17 103 -46 153 -64 119 -44 215 -86 415
-183 91 -44 210 -96 265 -115 165 -57 741 -193 940 -222 60 -8 189 -34 285
-56 96 -22 200 -44 230 -50 30 -6 84 -19 119 -30 59 -18 296 -48 496 -64 44
-3 125 -12 180 -20 102 -14 365 -29 810 -44 287 -10 739 1 800 20 l40 13 -75
12 c-41 7 -223 18 -405 24 -181 5 -370 14 -420 19 -49 5 -160 14 -245 21 -232
16 -374 30 -480 46 -172 26 -303 44 -455 64 -82 11 -188 29 -235 39 -293 66
-485 106 -626 131 -89 15 -202 39 -250 53 -49 14 -116 31 -149 37 -62 12 -432
125 -533 162 -31 11 -138 58 -237 103 -99 46 -236 104 -305 130 -69 27 -192
80 -275 120 -151 73 -212 118 -216 160 -4 41 1 75 12 75 5 0 36 -17 67 -38
244 -164 566 -294 1012 -408 30 -8 127 -37 215 -64 200 -61 341 -102 520 -150
77 -21 194 -53 260 -73 72 -21 156 -37 210 -42 50 -4 122 -13 160 -21 81 -17
504 -54 616 -54 42 0 134 -11 205 -24 218 -41 537 -70 609 -56 22 4 31 8 20 9
-48 3 -382 42 -443 51 -37 6 -116 22 -177 34 -60 13 -164 27 -230 30 -208 11
-456 37 -555 57 -52 11 -135 24 -185 29 -49 6 -157 30 -240 55 -82 24 -184 51
-225 60 -41 8 -115 29 -165 45 -49 16 -119 36 -155 45 -36 9 -103 30 -150 46
-47 17 -190 61 -318 100 -129 39 -293 92 -366 119 -316 115 -644 318 -727 448
-29 46 -37 86 -20 96 5 3 46 -12 92 -33 46 -22 107 -46 134 -54 28 -9 140 -43
250 -77 303 -94 1241 -340 1370 -360 33 -5 123 -20 200 -34 77 -14 185 -33
240 -41 55 -8 132 -20 170 -25 39 -6 133 -18 210 -25 77 -8 208 -24 290 -35
176 -23 641 -45 770 -37 375 26 479 42 559 88 l51 29 -50 -6 c-27 -3 -95 -12
-150 -19 -55 -8 -140 -16 -190 -20 -49 -3 -132 -11 -183 -16 -127 -14 -664 6
-837 31 -71 10 -164 21 -205 25 -41 3 -131 15 -200 26 -69 11 -168 25 -220 33
-308 43 -796 153 -1283 288 -486 135 -793 261 -967 399 -50 39 -58 58 -75 177
-7 46 2 53 29 23 25 -28 284 -144 402 -180 56 -17 135 -45 175 -62 41 -17 110
-44 154 -59 44 -15 103 -38 130 -50 202 -88 486 -166 820 -225 83 -15 197 -35
255 -45 58 -11 159 -24 225 -30 66 -6 158 -17 205 -25 47 -8 117 -17 155 -20
39 -4 158 -18 265 -31 107 -14 265 -26 350 -29 l155 -4 -55 20 c-30 11 -98 26
-150 34 -95 15 -399 65 -670 110 -80 13 -194 29 -255 35 -60 6 -159 20 -220
31 -60 11 -159 29 -220 40 -60 11 -189 37 -285 59 -96 21 -191 42 -210 46 -71
13 -278 77 -380 116 -442 170 -633 267 -809 411 -108 88 -126 128 -101 218
l10 36 64 -62 c67 -66 248 -190 355 -244 35 -18 104 -47 155 -66 50 -18 152
-56 226 -85 154 -59 392 -123 560 -150 108 -17 415 -70 615 -105 50 -9 115
-22 146 -30 125 -32 224 -47 424 -61 242 -16 352 -27 520 -49 237 -31 272 -36
405 -50 74 -9 187 -20 250 -25 63 -6 144 -14 180 -20 85 -13 227 -13 235 0 3
6 0 10 -7 10 -7 0 -89 12 -183 26 -93 13 -213 29 -265 34 -124 12 -270 32
-450 63 -80 14 -199 33 -265 41 -66 9 -154 21 -195 26 -41 6 -139 15 -218 20
-147 10 -266 27 -425 60 -51 10 -189 33 -307 50 -466 68 -623 104 -895 201
-290 104 -546 235 -733 375 -106 80 -180 182 -221 306 -7 20 -18 39 -26 41
-14 6 -8 52 16 109 20 48 169 160 309 232 139 71 466 183 675 231 66 15 170
40 230 55 61 16 173 36 250 45 77 10 181 26 230 37 50 10 116 23 147 29 32 5
70 14 85 20 39 15 267 66 328 74 28 4 102 15 165 25 168 27 253 39 365 50 55
5 132 14 170 20 202 30 695 35 1195 11z m3030 -2131 c-14 -4 -34 -8 -45 -8
-16 0 -15 2 5 8 14 4 34 8 45 8 16 0 15 -2 -5 -8z m-205 -30 c-16 -4 -46 -8
-65 -8 l-35 1 35 7 c19 4 49 7 65 8 l30 0 -30 -8z m-942 -937 c-7 -2 -21 -2
-30 0 -10 3 -4 5 12 5 17 0 24 -2 18 -5z m-75 -10 c-10 -2 -26 -2 -35 0 -10 3
-2 5 17 5 19 0 27 -2 18 -5z m-1645 -7338 c56 -8 154 -22 217 -30 63 -8 176
-24 250 -35 345 -53 403 -62 520 -80 193 -29 275 -47 840 -185 281 -69 393
-99 495 -131 130 -42 155 -50 270 -94 119 -44 268 -98 380 -135 69 -23 102
-36 280 -110 113 -47 280 -133 298 -154 41 -47 50 -173 17 -226 -33 -53 -490
-422 -615 -497 -89 -53 -261 -138 -425 -208 -80 -34 -219 -97 -310 -140 -91
-43 -208 -92 -260 -108 -182 -59 -754 -162 -1065 -192 -60 -6 -168 -16 -240
-23 -181 -17 -1399 -16 -1585 1 -207 20 -409 41 -580 62 -85 10 -238 28 -340
40 -202 23 -253 32 -505 91 -290 69 -505 149 -812 303 -241 121 -405 218 -547
325 -133 100 -173 137 -233 216 -79 102 -111 206 -98 318 7 60 9 63 79 130 39
38 91 80 116 95 25 14 115 72 201 128 177 118 355 207 514 259 132 42 554 148
681 169 50 9 192 37 315 61 333 68 674 107 1174 136 110 6 241 15 290 19 177
14 570 11 678 -5z"/>
<path d="M9155 16385 c-66 -7 -174 -18 -240 -24 -66 -6 -163 -19 -215 -30 -52
-11 -133 -22 -180 -26 -82 -7 -259 -41 -540 -105 -74 -17 -180 -40 -235 -51
-55 -12 -149 -36 -210 -54 -60 -19 -153 -41 -205 -49 -52 -9 -162 -39 -245
-66 -82 -27 -214 -70 -292 -94 -79 -25 -190 -68 -247 -96 -87 -41 -110 -57
-135 -93 -71 -103 -98 -226 -67 -300 18 -45 101 -115 220 -189 82 -50 141 -76
335 -144 130 -45 297 -96 371 -114 74 -17 173 -42 220 -55 47 -13 135 -33 195
-45 61 -12 180 -36 265 -55 85 -19 197 -41 248 -50 51 -9 134 -26 185 -39 159
-41 295 -63 667 -106 91 -10 246 -30 346 -44 99 -14 254 -34 345 -45 235 -29
385 -49 534 -72 72 -11 225 -26 340 -34 116 -8 256 -21 312 -30 81 -12 191
-15 520 -14 230 0 477 4 548 9 338 21 628 53 815 90 80 16 196 36 258 44 128
18 251 42 290 57 15 6 119 32 232 59 271 64 402 114 494 185 128 100 168 132
192 156 37 38 64 127 64 214 0 94 -17 138 -63 162 -20 10 -86 61 -149 114
-161 137 -269 201 -459 275 -48 18 -153 64 -235 103 -311 144 -874 313 -1219
366 -55 8 -138 21 -185 29 -47 8 -150 24 -230 36 -80 11 -197 29 -260 40 -239
40 -519 68 -880 90 -248 15 -1352 11 -1505 -5z m1870 -169 c193 -20 453 -53
507 -65 24 -6 151 -26 283 -45 405 -60 583 -94 795 -151 175 -47 629 -205 773
-269 78 -34 174 -73 212 -86 190 -63 348 -143 550 -278 l100 -67 -3 -55 c-5
-80 -32 -134 -87 -172 -26 -18 -77 -57 -114 -86 -36 -29 -78 -60 -93 -67 -51
-28 -235 -84 -358 -110 -69 -14 -183 -41 -255 -60 -71 -18 -204 -43 -295 -55
-91 -11 -205 -29 -255 -40 -87 -18 -254 -36 -575 -62 -106 -9 -313 -12 -655
-10 -431 3 -519 6 -635 22 -74 11 -214 24 -311 29 -97 5 -214 17 -260 25 -46
9 -151 25 -234 36 -213 28 -753 106 -860 123 -49 9 -121 18 -160 22 -192 18
-562 69 -658 91 -60 14 -157 31 -215 40 -59 8 -177 25 -262 39 -85 13 -195 29
-245 35 -205 26 -578 100 -725 145 -41 13 -122 37 -179 54 -58 17 -124 43
-149 57 -43 25 -44 27 -26 44 26 25 193 84 305 108 673 147 811 168 1419 222
190 17 403 37 473 45 71 8 188 15 260 15 72 0 208 9 302 19 274 32 568 50 905
56 449 9 461 23 20 24 -352 1 -587 -8 -830 -31 -63 -6 -230 -14 -370 -18 -243
-7 -922 -54 -1230 -85 -249 -25 -674 -108 -975 -191 -102 -28 -311 -119 -323
-141 -5 -8 -15 -11 -25 -7 -22 8 -22 24 0 24 15 0 15 2 -1 19 -22 25 -16 36
37 63 217 110 654 237 922 268 55 6 163 22 240 35 77 13 214 33 305 45 91 12
224 30 295 41 72 10 162 19 200 19 39 0 97 5 130 10 156 26 433 52 655 61 595
23 774 28 1065 27 294 -1 304 -2 200 -13 l-110 -11 180 -7 c466 -17 878 -56
1205 -113 467 -81 833 -177 1190 -315 69 -26 170 -64 224 -84 55 -21 176 -73
268 -116 93 -44 171 -79 174 -79 14 0 156 -90 218 -137 38 -29 73 -53 78 -53
33 0 -58 122 -137 183 -123 94 -430 228 -815 355 -451 149 -581 181 -1145 277
-274 47 -572 77 -980 99 -126 7 -214 15 -195 16 72 7 -287 17 -620 18 -661 2
-1206 -20 -1435 -58 -33 -5 -98 -10 -145 -10 -47 0 -134 -7 -195 -15 -60 -9
-209 -27 -330 -40 -121 -14 -269 -34 -330 -44 -60 -11 -148 -22 -195 -26 -79
-6 -367 -61 -453 -85 -22 -6 -41 -10 -43 -7 -13 12 489 138 841 210 942 194
1302 244 1955 267 124 5 227 9 230 10 3 1 -6 6 -20 10 -40 13 -343 10 -615 -5
-283 -15 -506 -43 -940 -117 -165 -28 -349 -59 -410 -68 -372 -61 -852 -171
-1180 -272 -269 -83 -349 -117 -370 -158 -17 -33 -20 -70 -5 -70 6 0 10 -12
10 -27 l-1 -28 -14 25 c-8 14 -14 37 -15 53 0 17 -5 27 -15 27 -9 0 -15 -9
-15 -25 0 -14 -4 -25 -10 -25 -20 0 -9 -21 31 -65 50 -54 40 -60 -13 -8 -31
30 -38 44 -38 75 0 55 53 162 93 187 65 39 236 100 427 150 63 17 161 46 217
65 57 19 140 40 185 46 46 6 131 24 190 41 58 16 160 41 226 54 66 14 193 41
281 60 262 58 412 85 477 85 33 0 109 9 169 20 60 11 170 25 244 31 75 6 172
14 216 19 44 5 449 7 900 5 648 -3 852 -7 970 -19z m-4165 -609 c-145 -65
-232 -108 -267 -130 l-43 -27 0 35 c0 44 10 49 175 96 132 37 181 47 135 26z"/>
<path d="M10427 16083 c-4 -6 64 -12 186 -17 205 -7 284 -14 612 -52 283 -33
487 -61 620 -85 61 -11 193 -36 295 -54 268 -49 560 -125 820 -212 643 -215
1109 -441 1136 -549 7 -27 14 -30 32 -12 37 37 -6 109 -107 177 -154 105 -524
257 -996 412 -357 116 -636 186 -915 229 -30 5 -134 22 -230 39 -96 16 -260
39 -365 50 -643 70 -641 69 -876 77 -132 4 -208 3 -212 -3z"/>
<path d="M10487 15650 c-38 -5 -71 -10 -73 -13 -7 -7 163 -16 411 -22 140 -4
285 -14 370 -26 145 -20 527 -63 650 -74 218 -19 709 -122 1005 -212 110 -33
417 -147 500 -185 36 -17 129 -56 207 -88 142 -57 275 -128 266 -142 -2 -5 5
-8 16 -8 39 0 22 34 -46 94 -129 113 -644 338 -948 415 -473 119 -693 158
-1048 186 -106 8 -203 17 -217 20 -14 2 -81 9 -150 15 -69 6 -172 17 -230 25
-124 16 -615 27 -713 15z"/>
<path d="M9525 15619 c-38 -4 -196 -12 -350 -18 -478 -17 -654 -29 -1055 -71
-52 -6 -147 -15 -210 -21 -156 -13 -307 -38 -685 -109 -115 -22 -281 -75 -346
-111 -33 -18 -45 -31 -47 -52 -3 -27 11 -37 23 -17 12 19 120 67 230 103 191
61 635 132 1025 162 118 9 258 21 310 26 130 13 537 28 751 29 97 0 232 4 300
9 68 5 243 12 389 16 282 6 386 12 410 26 13 7 13 8 0 13 -67 24 -572 34 -745
15z"/>
<path d="M9745 15472 c-16 -5 238 -11 565 -15 901 -11 1256 -31 1575 -88 61
-11 137 -24 170 -30 371 -63 404 -70 600 -131 205 -63 591 -212 875 -337 125
-56 130 -57 130 -37 0 53 -521 278 -962 415 -110 34 -333 84 -453 101 -108 15
-248 38 -375 61 -58 11 -172 24 -255 29 -82 6 -204 15 -270 20 -144 12 -1557
22 -1600 12z"/>
<path d="M9075 15430 c-33 -5 -145 -11 -250 -15 -104 -4 -253 -13 -330 -21
-77 -7 -213 -18 -303 -24 -90 -6 -183 -15 -206 -20 -23 -5 -91 -14 -152 -20
-135 -12 -322 -52 -432 -92 -46 -17 -81 -32 -79 -34 2 -2 41 7 86 21 121 36
312 72 421 80 52 4 124 11 159 16 73 11 314 24 726 39 154 5 332 16 395 24 63
8 167 20 230 27 63 7 119 16 125 21 11 10 -308 8 -390 -2z"/>
<path d="M6412 14432 c50 -73 279 -210 437 -262 100 -33 93 -18 -11 23 -169
67 -271 126 -408 234 -30 25 -32 26 -18 5z"/>
<path d="M7089 14046 c26 -32 95 -64 216 -101 66 -21 174 -54 240 -76 162 -51
244 -73 412 -109 79 -16 178 -38 220 -49 179 -43 584 -107 963 -152 118 -14
385 -18 397 -6 14 15 -22 27 -82 27 -120 0 -619 69 -955 130 -91 17 -187 35
-215 39 -27 5 -77 16 -110 25 -33 8 -154 36 -269 61 -114 25 -272 66 -350 90
-177 54 -349 102 -401 111 -22 4 -49 11 -60 17 -18 9 -19 9 -6 -7z"/>
<path d="M6608 13705 c-3 -6 -8 -1858 -10 -4115 -3 -3903 -2 -4105 15 -4108
16 -3 17 195 16 4055 -1 2232 -4 4085 -8 4118 -3 33 -9 55 -13 50z"/>
<path d="M12215 13624 c-71 -15 -431 -70 -560 -84 -115 -13 -549 -13 -725 0
-168 12 -855 16 -932 5 -37 -4 -58 -12 -58 -20 0 -9 28 -15 98 -19 53 -3 174
-13 267 -21 94 -8 235 -17 315 -20 80 -2 249 -12 375 -21 510 -35 935 23 1260
172 57 25 47 28 -40 8z"/>
<path d="M13995 13183 c-3 -43 -4 -1837 -1 -3988 5 -3372 8 -3910 20 -3913 8
-2 17 1 20 7 8 13 8 7626 -1 7819 -4 111 -9 152 -19 152 -8 0 -14 -26 -19 -77z"/>
<path d="M6674 4957 c-3 -10 0 -25 8 -35 8 -9 27 -42 43 -72 41 -78 162 -207
269 -287 133 -99 143 -106 236 -171 137 -93 501 -249 752 -321 57 -17 155 -46
218 -64 367 -110 762 -185 1140 -217 69 -6 170 -14 225 -19 204 -19 904 -34
1020 -22 182 18 284 30 410 46 66 8 190 19 275 25 221 15 369 35 575 81 474
105 390 81 735 202 118 41 242 87 275 102 33 15 96 40 140 55 119 41 215 88
367 178 117 70 288 193 288 207 0 2 -36 -23 -79 -56 -153 -115 -424 -263 -566
-309 -38 -12 -106 -38 -149 -57 -44 -20 -157 -62 -252 -94 -95 -32 -199 -69
-233 -83 -33 -14 -111 -37 -173 -50 -62 -14 -207 -46 -323 -71 -227 -50 -358
-69 -588 -85 -142 -10 -311 -26 -537 -53 -152 -17 -1009 -11 -1185 9 -71 9
-200 22 -285 29 -338 30 -635 93 -1115 237 -343 103 -531 172 -745 276 -116
57 -168 91 -385 249 -97 70 -210 185 -270 273 -75 110 -83 118 -91 97z"/>
</g>
</svg>
